<svg width="185" height="28" viewBox="0 0 185 28" fill="none" xmlns="http://www.w3.org/2000/svg">
<path d="M54.9129 19.6012H61.9413C61.9413 19.6792 61.9413 19.8354 61.9413 19.8354C61.9413 20.3821 62.1756 20.8507 62.7222 21.0849C63.1908 21.3192 63.8155 21.4754 64.5184 21.4754C66.0803 21.4754 66.8612 21.0068 66.8612 20.0697C66.8612 19.7573 66.705 19.445 66.3926 19.3669C66.0803 19.2107 65.4555 19.0545 64.5184 18.8983C63.8155 18.7421 63.347 18.664 62.8784 18.5859C62.488 18.5078 61.9413 18.4298 61.3946 18.2736C60.848 18.1174 60.3794 17.9612 59.989 17.8831C59.5985 17.7269 59.208 17.5707 58.8176 17.3364C58.4271 17.1022 58.0366 16.8679 57.8023 16.6336C57.5681 16.3993 57.3338 16.0869 57.0995 15.7746C56.8652 15.4622 56.709 15.0717 56.6309 14.6032C56.5529 14.2127 56.4748 13.666 56.4748 13.1975C56.4748 11.089 57.3338 9.449 58.9738 8.2776C60.6137 7.0281 62.8784 6.48145 65.6898 6.48145C66.4707 6.48145 67.3298 6.55954 68.1107 6.63763C68.8916 6.71573 69.6726 6.95001 70.5316 7.18429C71.3906 7.41857 72.0935 7.80903 72.7182 8.1995C73.343 8.58997 73.8115 9.13663 74.202 9.83947C74.5925 10.5423 74.8267 11.3232 74.8267 12.1823C74.8267 12.4166 74.8267 12.5727 74.8267 12.7289H67.9545V12.6508C67.9545 12.1042 67.7202 11.7137 67.3298 11.4794C66.8612 11.2451 66.3145 11.089 65.6117 11.089C65.065 11.089 64.5965 11.1671 64.206 11.4013C63.8155 11.6356 63.5813 11.948 63.5813 12.3385C63.5813 12.6508 63.7375 12.9632 64.0498 13.1194C64.3622 13.2756 64.8308 13.4318 65.6117 13.588C65.846 13.666 66.2364 13.666 66.7831 13.7441C67.2517 13.8222 67.7202 13.9003 67.9545 13.9003C68.2669 13.9784 68.6573 14.0565 69.1259 14.1346C69.5945 14.2127 69.9849 14.2908 70.2973 14.447C70.6097 14.5251 70.9221 14.6813 71.3125 14.8375C71.703 14.9936 72.0154 15.1498 72.2496 15.306C72.4839 15.4622 72.7182 15.6965 73.0306 16.0089C73.2649 16.2431 73.4991 16.5555 73.6553 16.8679C73.8115 17.1803 73.8896 17.5707 74.0458 17.9612C74.202 18.3517 74.202 18.8202 74.202 19.2888C74.202 20.7726 73.7334 22.1001 72.8744 23.1154C72.0154 24.2087 70.844 24.9896 69.3602 25.4582C67.8764 25.9267 66.2365 26.2391 64.3622 26.2391C63.5813 26.2391 62.8003 26.161 62.0194 26.0829C61.2385 26.0048 60.4575 25.8486 59.5985 25.5363C58.7395 25.302 57.9585 24.9896 57.3338 24.5991C56.709 24.2087 56.1624 23.662 55.7719 22.9592C55.3814 22.2563 55.1472 21.4754 55.1472 20.6164C54.7567 20.304 54.8348 19.9135 54.9129 19.6012Z" fill="white"/>
<path d="M76.9354 17.7269L77.8725 12.5727H75.2954L76.3106 6.94999H78.8877L79.5906 3.12341L87.0875 0.390137L85.9161 6.94999H89.4303L88.4151 12.5727H84.9009L84.0419 17.4145C83.9638 17.8831 83.8857 18.2736 83.8857 18.664C83.8857 19.2107 84.0419 19.6011 84.2762 19.8354C84.5104 20.0697 84.979 20.2259 85.6038 20.2259C85.7599 20.2259 85.9942 20.2259 86.3066 20.2259C86.5409 20.2259 86.7752 20.1478 86.9313 20.1478H87.1656L86.1504 25.7705C84.8228 25.8486 83.7295 25.9267 82.8705 25.9267C82.0115 25.9267 81.1524 25.8486 80.4496 25.6924C79.7467 25.5363 79.122 25.302 78.4972 24.9115C77.8725 24.521 77.4039 24.0525 77.0916 23.3496C76.7792 22.6468 76.623 21.8659 76.623 20.8506C76.5449 20.1478 76.7011 19.0545 76.9354 17.7269Z" fill="white"/>
<path d="M99.5824 6.40381C102.55 6.40381 104.893 7.10665 106.533 8.51233C108.251 9.91802 109.11 12.1046 109.11 14.9941C109.11 16.1655 108.954 17.2588 108.719 18.3521C108.407 19.4454 108.016 20.4606 107.392 21.3978C106.767 22.3349 106.064 23.1939 105.127 23.8968C104.19 24.5996 103.175 25.1463 101.925 25.6148C100.676 26.0053 99.27 26.2396 97.7862 26.2396C94.8186 26.2396 92.4758 25.5367 90.8359 24.131C89.1178 22.7254 88.2588 20.5387 88.2588 17.6493C88.2588 16.4779 88.415 15.3846 88.6493 14.2913C88.9616 13.1979 89.3521 12.1827 89.9768 11.2456C90.6016 10.3085 91.3044 9.44946 92.2416 8.74661C93.1006 8.04377 94.1939 7.49712 95.4434 7.02856C96.6929 6.63809 98.0986 6.40381 99.5824 6.40381ZM101.925 15.3065C101.925 14.3693 101.691 13.5884 101.3 12.9637C100.91 12.3389 100.207 12.1046 99.3481 12.1046C98.489 12.1046 97.7862 12.417 97.1615 12.9637C96.5367 13.5103 96.1462 14.2132 95.8339 14.916C95.5996 15.6969 95.4434 16.4779 95.4434 17.3369C95.4434 18.274 95.6777 19.055 96.0681 19.6797C96.4586 20.3045 97.1615 20.5387 98.0205 20.5387C98.8795 20.5387 99.5823 20.2264 100.207 19.6797C100.832 19.1331 101.222 18.4302 101.535 17.7274C101.769 16.9464 101.925 16.1655 101.925 15.3065Z" fill="white"/>
<path d="M108.797 25.6925L112.155 6.87198H119.184L118.715 9.29287C118.793 9.21478 118.871 9.13669 118.95 8.9805C119.028 8.82431 119.262 8.66813 119.574 8.35575C119.887 8.04338 120.277 7.8091 120.589 7.57482C120.98 7.34054 121.449 7.10626 122.073 6.95007C122.698 6.79388 123.323 6.6377 124.026 6.6377L125.509 6.71579L124.494 12.6509C124.026 12.5728 123.479 12.5728 123.01 12.5728C121.37 12.5728 120.043 13.0414 119.106 13.9785C118.169 14.9156 117.544 16.3213 117.153 18.2736L115.826 25.6925H108.797V25.6925Z" fill="white"/>
<path d="M128.399 26.161C127.618 26.161 126.915 26.0829 126.212 25.9267C125.588 25.7705 124.963 25.5363 124.338 25.1458C123.713 24.7553 123.323 24.2868 122.932 23.5839C122.62 22.8811 122.464 22.1001 122.464 21.163C122.464 20.304 122.62 19.5231 122.932 18.8983C123.245 18.1955 123.635 17.6488 124.104 17.1803C124.572 16.7117 125.197 16.3212 125.978 15.9308C126.759 15.6184 127.54 15.306 128.321 15.0717C129.102 14.8375 130.039 14.6813 131.054 14.5251C131.367 14.447 131.835 14.447 132.304 14.3689C132.85 14.2908 133.163 14.2127 133.475 14.2127C133.709 14.2127 134.022 14.1346 134.412 14.0565C134.803 13.9784 135.037 13.9003 135.193 13.8222C135.349 13.7441 135.584 13.666 135.74 13.5099C135.896 13.4318 136.052 13.2756 136.13 13.1194C136.208 12.9632 136.208 12.7289 136.208 12.5727C136.208 12.1042 135.974 11.7137 135.584 11.4794C135.193 11.2451 134.646 11.1671 134.1 11.1671C133.397 11.1671 132.772 11.3232 132.304 11.7137C131.835 12.1042 131.523 12.5727 131.367 13.1194H124.729C124.807 12.4946 125.041 11.8699 125.275 11.3232C125.51 10.7766 125.9 10.1518 126.447 9.52709C126.915 8.90234 127.54 8.43378 128.243 7.96522C128.946 7.49666 129.805 7.18429 130.898 6.87191C131.991 6.55954 133.163 6.48145 134.49 6.48145C135.271 6.48145 136.052 6.55954 136.677 6.63763C137.38 6.71573 138.083 6.87191 138.864 7.18429C139.644 7.49666 140.269 7.80903 140.816 8.1995C141.362 8.58997 141.831 9.21472 142.143 9.91756C142.456 10.6204 142.69 11.4794 142.69 12.4946C142.69 13.1975 142.612 14.0565 142.378 15.1498L141.362 20.6945C141.128 21.944 141.05 23.1154 141.05 24.2087C141.05 24.521 141.05 24.8334 141.05 25.0677C141.05 25.302 141.05 25.5363 141.128 25.6144V25.7705H134.412C134.334 25.3801 134.334 24.9896 134.334 24.521V24.1306C132.694 25.4582 130.742 26.161 128.399 26.161ZM131.523 21.7097C132.538 21.7097 133.319 21.3973 133.944 20.8507C134.568 20.304 134.881 19.5231 135.037 18.664L135.271 17.1803C135.037 17.3364 134.803 17.5707 134.412 17.7269C134.1 17.8831 133.787 17.9612 133.475 18.0393C133.241 18.1174 132.85 18.1955 132.46 18.3517C132.069 18.4298 131.757 18.5078 131.601 18.5859C130.351 18.9764 129.727 19.6012 129.727 20.3821C129.727 21.2411 130.351 21.7097 131.523 21.7097Z" fill="white"/>
<path d="M150.656 26.1613C149.094 26.1613 147.766 25.7709 146.595 24.9118C145.502 24.0528 144.643 23.0376 144.096 21.71C143.549 20.3824 143.315 18.8986 143.315 17.2587C143.315 16.1654 143.471 15.1501 143.705 14.0568C143.94 13.0416 144.33 12.0264 144.799 11.0893C145.267 10.1522 145.892 9.37122 146.595 8.66838C147.298 7.96554 148.157 7.41888 149.172 7.02842C150.187 6.63795 151.28 6.40367 152.452 6.40367C155.029 6.40367 156.825 7.1846 157.84 8.82457L159.402 0H166.431L161.901 25.7709H154.873L155.029 24.6776C153.779 25.6147 152.374 26.1613 150.656 26.1613ZM150.5 17.1806C150.5 17.7272 150.578 18.2739 150.734 18.7424C150.89 19.211 151.124 19.6015 151.515 19.9919C151.905 20.3043 152.374 20.5386 152.92 20.5386C153.545 20.5386 154.17 20.3824 154.639 20.07C155.107 19.7577 155.498 19.3672 155.81 18.8205C156.122 18.352 156.278 17.8053 156.435 17.1806C156.591 16.6339 156.669 16.0092 156.669 15.3844C156.669 14.8378 156.591 14.2911 156.435 13.8226C156.278 13.354 156.044 12.9635 155.654 12.5731C155.263 12.2607 154.795 12.0264 154.248 12.0264C153.623 12.0264 152.999 12.1826 152.53 12.495C152.061 12.8073 151.671 13.1978 151.359 13.7445C151.124 14.213 150.89 14.7597 150.734 15.3844C150.578 15.9311 150.5 16.5558 150.5 17.1806Z" fill="white"/>
<path d="M184.626 18.1959H171.663C171.897 20.0702 172.834 21.0854 174.474 21.0854C175.489 21.0854 176.426 20.6949 177.207 19.8359H184.002C183.221 21.7101 181.971 23.272 180.253 24.4434C178.535 25.6148 176.505 26.1615 173.927 26.1615C172.912 26.1615 171.897 26.0834 171.038 25.8491C170.101 25.6148 169.32 25.3024 168.539 24.8339C167.758 24.3653 167.133 23.8187 166.587 23.1939C166.04 22.5692 165.571 21.7101 165.259 20.773C164.947 19.8359 164.791 18.7426 164.791 17.5712C164.791 16.4779 164.947 15.3846 165.181 14.2913C165.415 13.1979 165.884 12.1827 166.509 11.2456C167.133 10.3085 167.836 9.44946 168.695 8.74661C169.554 8.04377 170.569 7.41902 171.819 7.02856C173.068 6.63809 174.396 6.40381 175.88 6.40381C177.364 6.40381 178.691 6.63809 179.863 7.02856C181.034 7.41902 181.971 8.04377 182.752 8.82471C183.455 9.60564 184.08 10.4647 184.392 11.4799C184.782 12.4951 184.939 13.5884 184.939 14.8379C185.095 16.0093 184.939 17.1026 184.626 18.1959ZM175.724 11.6361C174.865 11.6361 174.084 11.8704 173.459 12.417C172.834 12.9637 172.366 13.6665 172.053 14.5255H178.223C178.145 13.5103 177.91 12.8075 177.598 12.3389C177.129 11.8704 176.583 11.6361 175.724 11.6361Z" fill="white"/>
<path d="M32.4906 15L25.6755 21.5765H6.73585L0 28H28.4491L35.1849 21.5765L42 15H32.4906Z" fill="#FF9900"/>
<path d="M26.4178 2L19.7486 8.53846L13 15H22.5274L29.276 8.53846H48.2514L55 2H26.4178Z" fill="#FF9900"/>
</svg>
